<svg xmlns="http://www.w3.org/2000/svg" width="1200" height="200"><path d="M1141.643 120a5 5 0 0 1 5-5h23.756a5 5 0 0 0 4.755-3.455l6.498-20a5 5 0 0 0-4.755-6.545h-30.254a5 5 0 0 1-5-5l.01-23.746a5 5 0 0 0-3.455-4.756l-20-6.498a5 5 0 0 0-6.546 4.755l-.01 30.245a5 5 0 0 1-5 5h-23.736a5 5 0 0 0-4.755 3.455l-6.499 20a5 5 0 0 0 4.756 6.545h30.234a5 5 0 0 1 5 5l.01 30.245a5 5 0 0 0 6.546 4.755l20-6.498a5 5 0 0 0 3.454-4.756zM580 67.421a5 5 0 0 0-4.755 3.455l-29.46 90.67a5 5 0 0 1-4.756 3.454H520a5 5 0 0 1-4.755-6.545l38.99-120A5 5 0 0 1 558.99 35h52.02a5 5 0 0 1 4.755 3.455l38.99 120A5 5 0 0 1 650 165h-21.03a5 5 0 0 1-4.755-3.455l-29.46-90.67A5 5 0 0 0 590 67.422zM930 165a5 5 0 0 0 4.755-6.545l-6.498-20a5 5 0 0 0-4.755-3.455H840c-2.77 0-5-2.23-5-5v-10c0-2.77 2.23-5 5-5h73.754a5 5 0 0 0 4.755-6.545l-6.498-20A5 5 0 0 0 907.256 85H840c-2.77 0-5-2.23-5-5V70c0-2.77 2.23-5 5-5h83.502a5 5 0 0 0 4.755-3.455l6.498-20A5 5 0 0 0 930 35H810c-2.77 0-5 2.23-5 5v120c0 2.77 2.23 5 5 5zm-245.379-50a5 5 0 0 1-4.755-3.455l-14.621-45A5 5 0 0 1 665 65V40c0-2.77 2.23-5 5-5h120c2.77 0 5 2.23 5 5v20c0 2.77-2.23 5-5 5h-86.831a5 5 0 0 0-4.755 6.545l3.249 10A5 5 0 0 0 706.418 85h68.96a5 5 0 0 1 4.756 3.455l14.621 45A5 5 0 0 1 795 135v25c0 2.77-2.23 5-5 5H670c-2.77 0-5-2.23-5-5v-20c0-2.77 2.23-5 5-5h86.831a5 5 0 0 0 4.755-6.545l-3.249-10a5 5 0 0 0-4.755-3.455zM475 120c0-2.77-2.23-5-5-5h-60c-2.77 0-5 2.23-5 5v40c0 2.77-2.23 5-5 5h-20c-2.77 0-5-2.23-5-5V40c0-2.77 2.23-5 5-5h20c2.77 0 5 2.23 5 5v40c0 2.77 2.23 5 5 5h60c2.77 0 5-2.23 5-5V40c0-2.77 2.23-5 5-5h20c2.77 0 5 2.23 5 5v120c0 2.77-2.23 5-5 5h-20c-2.77 0-5-2.23-5-5z"/><path d="M200.5 0v200" fill="none" stroke="#000"/><path d="M39.29 109.78h121.42m-121.42 0h121.42m-121.42 0h121.42" fill="#f4cf8c"/><path d="M100.354 16.666c-67.115 0-71.983 31.533-71.983 31.533l6.084 35.172h47.838a19.522 19.522 0 0 0-1.928 8.442c0 8.03 4.828 14.925 11.737 17.966H15.699l4.912 14.735h158.78l4.91-14.735h-76.4c6.906-3.041 11.732-9.936 11.732-17.966 0-3.026-.705-5.882-1.928-8.442h47.84l6.084-35.172s-16.063-31.533-71.275-31.533z" fill="#060707"/><path d="M100 76.834c-8.26 0-14.981 6.722-14.981 14.983 0 8.256 6.721 14.973 14.982 14.973 8.26 0 14.981-6.717 14.981-14.973 0-8.26-6.72-14.983-14.981-14.983m0 32.21c-9.502 0-17.237-7.729-17.237-17.227 0-9.504 7.735-17.235 17.237-17.235 9.502 0 17.233 7.73 17.233 17.235 0 9.498-7.73 17.227-17.233 17.227" fill="#fff"/><path d="M100 81c-5.963 0-10.815 4.85-10.815 10.813 0 5.961 4.852 10.812 10.816 10.812 5.963 0 10.814-4.85 10.814-10.812s-4.85-10.812-10.814-10.812m0 23.25c-6.862 0-12.441-5.579-12.441-12.438 0-6.858 5.579-12.439 12.44-12.439 6.86 0 12.442 5.58 12.442 12.44 0 6.858-5.582 12.438-12.441 12.438" fill="#fff"/><path d="M103.112 87.452l5.661-4.088-4.295 5.504 6.754-1.768-5.991 3.584 6.931.79-6.88 1.178 6.182 3.245-6.842-1.391 4.59 5.258-5.874-3.77 2.38 6.562-4.118-5.634-.149 6.978-1.806-6.745-2.66 6.455.753-6.94-4.813 5.054 3.21-6.197-6.314 2.977 5.233-4.621-6.96.494 6.545-2.418-6.67-2.054 6.978.108-5.477-4.325 6.468 2.627L92.4 82.3l5.087 4.785-1.136-6.888 3.013 6.298 1.429-6.833.534 6.958 3.802-5.851z" fill="#fff"/><path d="M103.716 91.814a3.717 3.717 0 1 1-7.434-.002 3.717 3.717 0 0 1 7.434.002" fill="#060707"/><path d="M99.186 148.308s9.18-10.932 30.731-5.57c21.552 5.363 32.588 32.072 32.588 32.072s-11.755 8.768-30.114 6.395c-18.352-2.37-33.31-21.967-33.205-32.897m-.003 0s-9.178-10.932-30.73-5.57c-21.556 5.363-32.59 32.072-32.59 32.072s11.757 8.768 30.113 6.395c18.358-2.37 33.31-21.967 33.207-32.897M286.499 115a5 5 0 0 1-4.756-3.455l-6.498-20A5 5 0 0 1 275 90c0-2.77 2.23-5 5-5h43.582a5 5 0 0 0 4.755-3.455l3.25-10A5 5 0 0 0 326.83 65H270c-2.77 0-5 2.23-5 5v90c0 2.77-2.23 5-5 5h-20c-2.77 0-5-2.23-5-5V40c0-2.77 2.23-5 5-5h120c2.77 0 5.306 2.247 5 5v25a5 5 0 0 1-.245 1.545l-14.621 45a5 5 0 0 1-4.756 3.455zm698.746-23.455A5 5 0 0 1 985 90c0-2.77 2.23-5 5-5h43.582a5 5 0 0 0 4.755-3.455l3.25-10A5 5 0 0 0 1036.83 65H980c-2.77 0-5 2.23-5 5v90c0 2.77-2.23 5-5 5h-20c-2.77 0-5-2.23-5-5V40c0-2.77 2.23-5 5-5h120c2.77 0 5.306 2.247 5 5v25a5 5 0 0 1-.245 1.545l-14.621 45a5 5 0 0 1-4.756 3.455h-24.087a5 5 0 0 0-4.755 6.545l3.25 10a5 5 0 0 0 4.755 3.455H1070c2.77 0 5 2.23 5 5v20c0 2.77-2.23 5-5 5h-57.255a5 5 0 0 1-4.756-3.455z"/></svg>