<svg xmlns="http://www.w3.org/2000/svg" viewBox="0 0 728 128"><path fill="#f4cf8c" d="M18.55546 69.1607h58.88923M18.55546 69.1607h58.88923M18.55546 69.1607h58.88923"/><path fill="#060707" d="M48.17145 24c-32.55103 0-34.91192 15.2938-34.91192 15.2938l2.95077 17.0586h23.201673c-.593124 1.2415-.934966 2.6266-.934966 4.0941 0 3.8951 2.341726 7.2389 5.692192 8.714H7.11359L9.496 76.3068h77.00893l2.381458-7.1463H51.831729c3.349913-1.4751 5.690296-4.8189 5.690296-8.714 0-1.4675-.342032-2.8526-.934961-4.0941H79.78968l2.950773-17.0586S74.949823 24 48.17145 24z"/><path fill="#fff" d="M48.000423 53.182c-4.006365 0-7.266469 3.2601-7.266469 7.2665 0 4.0046 3.260104 7.2622 7.266469 7.2622 4.006364 0 7.266037-3.2576 7.266037-7.2622 0-4.0064-3.259673-7.2665-7.266037-7.2665m0 15.622c-4.608635 0-8.360211-3.7486-8.360211-8.3555 0-4.6095 3.751576-8.3589 8.360211-8.3589s8.358057 3.7494 8.358057 8.3589c0 4.6069-3.749422 8.3555-8.358057 8.3555"/><path fill="#fff" d="M48.000423 55.2028c-2.892364 0-5.245827 2.3522-5.245827 5.2441 0 2.8911 2.353463 5.2437 5.245827 5.2437 2.892363 0 5.244963-2.3526 5.244963-5.2437 0-2.8919-2.3526-5.2441-5.244963-5.2441m0 11.2768c-3.328219 0-6.033909-2.7062-6.033909-6.0327 0-3.3264 2.70569-6.033 6.033909-6.033 3.326497 0 6.033908 2.7066 6.033908 6.033 0 3.3265-2.707411 6.0327-6.033908 6.0327"/><path fill="#fff" d="M49.50933 58.3314l2.74578-1.9822-2.083155 2.669 3.275625-.8571-2.905725 1.7379 3.361844.3837-3.336842.5708 2.997988 1.5739-3.318306-.6746 2.226285 2.55-2.848819-1.8279 1.154101 3.1821-1.997362-2.7325-.072 3.3843-.876028-3.2713-1.289898 3.1308.364725-3.3662-2.334068 2.4518 1.557195-3.0058-3.062654 1.4438L45.606 61.4506l-3.376075.2396 3.174744-1.1726-3.234666-.9963 3.384261.053-2.656539-2.0978 3.137233 1.2739-1.721015-2.9169 2.46728 2.3207-.550967-3.3407 1.461057 3.0545.693234-3.314.2591 3.3743 1.843886-2.8376z"/><path fill="#060707" d="M49.802361 60.447c0 .9938-.805755 1.8025-1.802928 1.8025-.995019 0-1.802501-.8087-1.802501-1.8025 0-.9971.807482-1.8029 1.802501-1.8029.997173 0 1.802928.8058 1.802928 1.8029"/><path d="M47.605089 87.8473s4.452143-5.3023 14.904991-2.7018c10.452853 2.6014 15.805167 15.5551 15.805167 15.5551s-5.701087 4.2525-14.605368 3.1019c-8.900833-1.1498-16.15523-10.6542-16.10479-15.9552m-.0015 0s-4.451279-5.3023-14.904564-2.7018C22.24489 87.7469 16.89344 100.7006 16.89344 100.7006s5.70194 4.2525 14.604497 3.1019c8.903849-1.1498 16.156093-10.6542 16.105652-15.9552"/><path fill="none" stroke="#000" d="M112.5-.0002v128"/><path d="M699.99999 72c-2.216 0-4 1.784-4 4v13.4006c-.00001 1.7329-1.11586 3.2687-2.76394 3.8042l-8 2.5994c-1.21774.3957-2.55131.1845-3.58721-.5681-1.03589-.7526-1.64886-1.9557-1.64885-3.2361V76c0-2.216-1.784-4-4-4h-16c-1.2804 0-2.4835-.613-3.2361-1.6489-.7526-1.0359-.9638-2.3694-.5681-3.5872l2.5994-8c.5355-1.648 2.0713-2.7639 3.8042-2.7639h13.4006c2.216 0 4-1.784 4-4V36c-.00001-1.2804.61296-2.4835 1.64885-3.2361 1.0359-.7526 2.36947-.9638 3.58721-.5681l8 2.5994c1.64809.5355 2.76393 2.0713 2.76394 3.8042V52c0 2.216 1.784 4 4 4h16c1.2804 0 2.4835.613 3.2361 1.6489.7526 1.0359.9638 2.3694.5681 3.5872l-2.5994 8c-.5355 1.648-2.0713 2.7639-3.8042 2.7639zm-534.078875 0c-1.7329 0-3.26872-1.1158-3.80423-2.7639l-2.59935-8c-.39567-1.2177-.18445-2.5513.56815-3.5872.75261-1.0359 1.95565-1.6489 3.23607-1.6489h27.955769c1.7329 0 3.26872-1.1158 3.80423-2.7639l2.59936-8c.39567-1.2177.18445-2.5513-.56816-3.5872-.7526-1.0359-1.95564-1.6489-3.23607-1.6489H155.99999c-2.216 0-4 1.784-4 4v56c0 2.216-1.784 4-4 4h-8c-2.216 0-4-1.784-4-4V28c0-2.216 1.784-4 4-4h72c2.216 0 4.13823 1.7883 4 4v12c0 .4198-.0661.8369-.19577 1.2361l-9.09775 28C206.17096 70.8842 204.63514 72 202.90224 72zm122.078875 4c0-2.216-1.784-4-4-4h-40c-2.216 0-4 1.784-4 4v24c0 2.216-1.784 4-4 4h-8c-2.216 0-4-1.784-4-4V28c0-2.216 1.784-4 4-4h8c2.216 0 4 1.784 4 4v24c0 2.216 1.784 4 4 4h40c2.216 0 4-1.784 4-4V28c0-2.216 1.784-4 4-4h8c2.216 0 4 1.784 4 4v72c0 2.216-1.784 4-4 4h-8c-2.216 0-4-1.784-4-4zm76.60578-52c1.7329 0 3.26872 1.1158 3.80423 2.7639l23.39422 72c.39567 1.2177.18445 2.5513-.56816 3.5872-.7526 1.0359-1.95564 1.6489-3.23607 1.6489h-8c-1.7329 0-3.26872-1.1158-3.80423-2.7639L357.197 42.7639C356.66149 41.1158 355.12567 40 353.39277 40h-2.78556c-1.73289 0-3.26872 1.1158-3.80422 2.7639l-18.99877 58.4722c-.53551 1.6481-2.07133 2.7639-3.80423 2.7639h-8c-1.28043 0-2.48346-.613-3.23607-1.6489-.75261-1.0359-.96382-2.3695-.56816-3.5872l23.39422-72c.53551-1.6481 2.07133-2.7639 3.80423-2.7639zm90.67177 48c1.7329 0 3.26872 1.1158 3.80423 2.7639l2.59936 8c.39567 1.2177.18445 2.5513-.56816 3.5872C460.36036 87.387 459.15733 88 457.8769 88h-53.87691c-2.216 0-4 1.784-4 4v8c0 2.216 1.784 4 4 4h72c2.216 0 4-1.784 4-4V88c0-.4198-.0661-.8369-.19577-1.2361l-9.09775-28C470.17096 57.1158 468.63513 56 466.90224 56h-42.17975c-1.7329 0-3.26872-1.1158-3.80423-2.7639l-2.59936-8c-.39566-1.2177-.18445-2.5513.56816-3.5872C419.63967 40.613 420.8427 40 422.12313 40h53.87686c2.216 0 4-1.784 4-4v-8c0-2.216-1.784-4-4-4h-72c-2.216 0-4 1.784-4 4v12c0 .4198.0661.8369.19577 1.2361l9.09776 28c.5355 1.6481 2.07133 2.7639 3.80422 2.7639zm36.72245-48c-2.216 0-4 1.784-4 4v72c0 2.216 1.784 4 4 4h72c1.28043 0 2.48346-.613 3.23607-1.6489.75261-1.0359.96382-2.3695.56816-3.5872l-2.59936-8C564.66935 89.1158 563.13353 88 561.40063 88h-53.40064c-2.216 0-4-1.784-4-4v-8c0-2.216 1.784-4 4-4h45.60257c1.28043 0 2.48346-.613 3.23607-1.6489.75261-1.0359.96382-2.3695.56816-3.5872l-2.59936-8C554.27192 57.1158 552.7361 56 551.0032 56h-43.00321c-2.216 0-4-1.784-4-4v-8c0-2.216 1.784-4 4-4h53.40064c1.7329 0 3.26872-1.1158 3.80423-2.7639l2.59936-8c.39566-1.2177.18445-2.5513-.56816-3.5872C566.48345 24.613 565.28042 24 563.99999 24zm107.51747 37.2361c-.39567-1.2177-.18446-2.5513.56815-3.5872.75261-1.0359 1.95564-1.6489 3.23607-1.6489h27.95588c1.7329 0 3.26872-1.1158 3.80423-2.7639l2.59936-8c.39566-1.2177.18445-2.5513-.56816-3.5872-.7526-1.0359-1.95564-1.6489-3.23607-1.6489h-37.87693c-2.216 0-4 1.784-4 4v56c0 2.216-1.784 4-4 4h-8c-2.216 0-4-1.784-4-4V28c0-2.216 1.784-4 4-4h72c2.216 0 4 1.784 4 4v12c0 .4198-.0661.8369-.19577 1.2361l-9.09776 28c-.5355 1.6481-2.07133 2.7639-3.80422 2.7639H625.3438c-1.28042 0-2.48346.613-3.23606 1.6489-.75261 1.0359-.96383 2.3695-.56816 3.5872l2.59935 8c.53551 1.6481 2.07133 2.7639 3.80423 2.7639h24.05683c2.216 0 4 1.784 4 4v8c0 2.216-1.784 4-4 4h-35.68152c-1.7329 0-3.26872-1.1158-3.80423-2.7639z" paint-order="stroke fill markers"/></svg>